# xmcd
#
# Track frame offsets: 
#        150
#        29798
#        56515
#        85452
#        117689
#        143923
#        173382
#        217514
#
# Disc length: 3380 seconds
#
# Revision: 0
# Processed by: cddbd v1.5.2PL0 Copyright (c) Steve Scherf et al.
# Submitted via: ExactAudioCopy v0.95b3
#
DISCID=6c0d3208
DTITLE=Maisha Yako - Upendo
DYEAR=2007
DGENRE=African Gospel
TTITLE0=Mungu Anakupenda
TTITLE1=Mungu wa Ushindi
TTITLE2=Haleluya Bambam
TTITLE3=Ingia Zizini
TTITLE4=Tina Lako
TTITLE5=Kaza Liwa
TTITLE6=Maisha Yako
TTITLE7=Mungu Anakupenda
EXTD=
EXTT0=Mungu Anakupenda
EXTT1=
EXTT2=
EXTT3=
EXTT4=
EXTT5=
EXTT6=
EXTT7=
PLAYORDER=
